<?xml version="1.0" ?><svg fill="none" height="24" viewBox="0 0 24 24" width="24" xmlns="http://www.w3.org/2000/svg"><path clip-rule="evenodd" d="M18.0303 7.96967C18.3232 8.26256 18.3232 8.73744 18.0303 9.03033L11.0303 16.0303C10.8897 16.171 10.6989 16.25 10.5 16.25C10.3011 16.25 10.1103 16.171 9.96967 16.0303L5.96967 12.0303C5.67678 11.7374 5.67678 11.2626 5.96967 10.9697C6.26256 10.6768 6.73744 10.6768 7.03033 10.9697L10.5 14.4393L16.9697 7.96967C17.2626 7.67678 17.7374 7.67678 18.0303 7.96967Z" fill="black" fill-rule="evenodd"/><path clip-rule="evenodd" d="M12 2.75C6.89137 2.75 2.75 6.89137 2.75 12C2.75 17.1086 6.89137 21.25 12 21.25C14.0833 21.25 16.0037 20.5622 17.5496 19.401C17.8808 19.1522 18.351 19.219 18.5998 19.5502C18.8485 19.8814 18.7817 20.3516 18.4505 20.6003C16.6538 21.95 14.4192 22.75 12 22.75C6.06294 22.75 1.25 17.9371 1.25 12C1.25 6.06294 6.06294 1.25 12 1.25C17.9371 1.25 22.75 6.06294 22.75 12C22.75 13.5175 22.4351 14.9634 21.8664 16.2745C21.7016 16.6545 21.2599 16.8289 20.8799 16.664C20.4999 16.4992 20.3255 16.0575 20.4903 15.6775C20.9788 14.5514 21.25 13.3083 21.25 12C21.25 6.89137 17.1086 2.75 12 2.75Z" fill="black" fill-rule="evenodd"/></svg>